<mxfile host="app.diagrams.net" agent="Mozilla/5.0 (Windows NT 10.0; Win64; x64) AppleWebKit/537.36 (KHTML, like Gecko) Chrome/136.0.0.0 Safari/537.36 Edg/136.0.0.0" version="26.2.15">
  <diagram name="第 1 页" id="fuWVBwzkVWqvKXko8ywO">
    <mxGraphModel dx="2058" dy="1146" grid="1" gridSize="10" guides="1" tooltips="1" connect="1" arrows="1" fold="1" page="1" pageScale="1" pageWidth="827" pageHeight="1169" math="0" shadow="0">
      <root>
        <mxCell id="0" />
        <mxCell id="1" parent="0" />
        <mxCell id="xAZ6UwgoXjj4Eg5rHqsY-1" value="开始" style="whiteSpace=wrap;strokeWidth=2;fontSize=18;" parent="1" vertex="1">
          <mxGeometry x="97" y="50" width="92" height="54" as="geometry" />
        </mxCell>
        <mxCell id="xAZ6UwgoXjj4Eg5rHqsY-2" value="调用calculate_speeds方法" style="whiteSpace=wrap;strokeWidth=2;fontSize=18;" parent="1" vertex="1">
          <mxGeometry x="19.5" y="140" width="247" height="54" as="geometry" />
        </mxCell>
        <mxCell id="xAZ6UwgoXjj4Eg5rHqsY-22" style="edgeStyle=orthogonalEdgeStyle;rounded=0;orthogonalLoop=1;jettySize=auto;html=1;exitX=0;exitY=0.5;exitDx=0;exitDy=0;entryX=0.5;entryY=0;entryDx=0;entryDy=0;fontSize=18;" parent="1" target="xAZ6UwgoXjj4Eg5rHqsY-7" edge="1">
          <mxGeometry relative="1" as="geometry">
            <mxPoint x="81" y="287" as="sourcePoint" />
            <mxPoint x="159" y="659" as="targetPoint" />
            <Array as="points">
              <mxPoint x="61" y="287" />
              <mxPoint x="61" y="617" />
              <mxPoint x="159" y="617" />
            </Array>
          </mxGeometry>
        </mxCell>
        <mxCell id="xAZ6UwgoXjj4Eg5rHqsY-23" value="否" style="edgeLabel;html=1;align=center;verticalAlign=middle;resizable=0;points=[];fontSize=18;" parent="xAZ6UwgoXjj4Eg5rHqsY-22" vertex="1" connectable="0">
          <mxGeometry x="-0.7937" y="-1" relative="1" as="geometry">
            <mxPoint as="offset" />
          </mxGeometry>
        </mxCell>
        <mxCell id="xAZ6UwgoXjj4Eg5rHqsY-3" value="是否超速" style="rhombus;strokeWidth=2;whiteSpace=wrap;fontSize=18;" parent="1" vertex="1">
          <mxGeometry x="81" y="228" width="124" height="124" as="geometry" />
        </mxCell>
        <mxCell id="xAZ6UwgoXjj4Eg5rHqsY-4" value="记录违法车辆信息" style="whiteSpace=wrap;strokeWidth=2;fontSize=18;" parent="1" vertex="1">
          <mxGeometry x="131.5" y="360" width="188" height="54" as="geometry" />
        </mxCell>
        <mxCell id="xAZ6UwgoXjj4Eg5rHqsY-5" value="调用record_violation方法" style="whiteSpace=wrap;strokeWidth=2;fontSize=18;" parent="1" vertex="1">
          <mxGeometry x="130" y="440" width="190" height="54" as="geometry" />
        </mxCell>
        <mxCell id="xAZ6UwgoXjj4Eg5rHqsY-18" style="edgeStyle=orthogonalEdgeStyle;rounded=0;orthogonalLoop=1;jettySize=auto;html=1;exitX=0.5;exitY=1;exitDx=0;exitDy=0;entryX=0.5;entryY=0;entryDx=0;entryDy=0;fontSize=18;" parent="1" source="xAZ6UwgoXjj4Eg5rHqsY-6" target="xAZ6UwgoXjj4Eg5rHqsY-7" edge="1">
          <mxGeometry relative="1" as="geometry" />
        </mxCell>
        <mxCell id="xAZ6UwgoXjj4Eg5rHqsY-6" value="存入traffic_violations表" style="whiteSpace=wrap;strokeWidth=2;fontSize=18;" parent="1" vertex="1">
          <mxGeometry x="130" y="520" width="190" height="54" as="geometry" />
        </mxCell>
        <mxCell id="xAZ6UwgoXjj4Eg5rHqsY-7" value="结束" style="whiteSpace=wrap;strokeWidth=2;fontSize=18;" parent="1" vertex="1">
          <mxGeometry x="113" y="660" width="92" height="54" as="geometry" />
        </mxCell>
        <mxCell id="xAZ6UwgoXjj4Eg5rHqsY-8" value="" style="startArrow=none;endArrow=block;exitX=0.5;exitY=1;entryX=0.5;entryY=0;rounded=0;edgeStyle=orthogonalEdgeStyle;fontSize=18;" parent="1" source="xAZ6UwgoXjj4Eg5rHqsY-1" target="xAZ6UwgoXjj4Eg5rHqsY-2" edge="1">
          <mxGeometry relative="1" as="geometry" />
        </mxCell>
        <mxCell id="xAZ6UwgoXjj4Eg5rHqsY-9" value="" style="curved=1;startArrow=none;endArrow=block;exitX=0.5;exitY=1;entryX=0.5;entryY=0;rounded=0;fontSize=18;" parent="1" source="xAZ6UwgoXjj4Eg5rHqsY-2" target="xAZ6UwgoXjj4Eg5rHqsY-3" edge="1">
          <mxGeometry relative="1" as="geometry">
            <Array as="points" />
          </mxGeometry>
        </mxCell>
        <mxCell id="xAZ6UwgoXjj4Eg5rHqsY-10" value="是" style="startArrow=none;endArrow=block;exitX=1;exitY=0.5;entryX=0.5;entryY=0;rounded=0;edgeStyle=orthogonalEdgeStyle;exitDx=0;exitDy=0;fontSize=18;" parent="1" source="xAZ6UwgoXjj4Eg5rHqsY-3" target="xAZ6UwgoXjj4Eg5rHqsY-4" edge="1">
          <mxGeometry relative="1" as="geometry" />
        </mxCell>
        <mxCell id="xAZ6UwgoXjj4Eg5rHqsY-11" value="" style="startArrow=none;endArrow=block;exitX=0.5;exitY=1;entryX=0.5;entryY=0;rounded=0;edgeStyle=orthogonalEdgeStyle;fontSize=18;" parent="1" source="xAZ6UwgoXjj4Eg5rHqsY-4" target="xAZ6UwgoXjj4Eg5rHqsY-5" edge="1">
          <mxGeometry relative="1" as="geometry" />
        </mxCell>
        <mxCell id="xAZ6UwgoXjj4Eg5rHqsY-12" value="" style="startArrow=none;endArrow=block;exitX=0.5;exitY=1;entryX=0.5;entryY=0;rounded=0;edgeStyle=orthogonalEdgeStyle;fontSize=18;" parent="1" source="xAZ6UwgoXjj4Eg5rHqsY-5" target="xAZ6UwgoXjj4Eg5rHqsY-6" edge="1">
          <mxGeometry relative="1" as="geometry" />
        </mxCell>
      </root>
    </mxGraphModel>
  </diagram>
</mxfile>
